{"title":"Where's Wally?: The Animated Series","uid":10670968,"size":4069044052,"categoryP":"video","categoryS":"tv_shows","magnet":"?xt=urn:btih:c67077f263af78162136c059d3ec6198a114689d&amp;dn=Where%27s+Wally%3F%3A+The+Animated+Series&amp;tr=udp%3A%2F%2Ftracker.openbittorrent.com%3A80&amp;tr=udp%3A%2F%2Fopen.demonii.com%3A1337&amp;tr=udp%3A%2F%2Ftracker.coppersurfer.tk%3A6969&amp;tr=udp%3A%2F%2Fexodus.desync.com%3A6969","seeders":3,"leechers":1,"uploader":"theghostoutside","files":9,"time":1406869651,"description":"The &quot;Where's Wally?: Animated Series&quot; collection.\nThey appear to be VHS rips.\n\nMore information can be found here: http://en.wikipedia.org/wiki/Where%27s_Wally%3F:_The_Animated_Series\n\n\n\nA Stone Age Story;\n\nGeneral\nComplete name                            : D:DownloadsSeedingwhere's wallyA stone age story.AVI\nFormat                                   : AVI\nFormat/Info                              : Audio Video Interleave\nFile size                                : 575 MiB\nDuration                                 : 22mn 41s\nOverall bit rate                         : 3 540 Kbps\n\nVideo\nID                                       : 0\nFormat                                   : MPEG-4 Visual\nFormat profile                           : Simple@L3\nFormat settings, BVOP                    : No\nFormat settings, QPel                    : No\nFormat settings, GMC                     : No warppoints\nFormat settings, Matrix                  : Default (H.263)\nCodec ID                                 : XVID\nCodec ID/Hint                            : XviD\nDuration                                 : 22mn 41s\nBit rate                                 : 3 405 Kbps\nWidth                                    : 720 pixels\nHeight                                   : 576 pixels\nDisplay aspect ratio                     : 5:4\nFrame rate                               : 25.000 fps\nStandard                                 : PAL\nColor space                              : YUV\nChroma subsampling                       : 4:2:0\nBit depth                                : 8 bits\nScan type                                : Progressive\nCompression mode                         : Lossy\nBits/(Pixel*Frame)                       : 0.328\nStream size                              : 553 MiB (96%)\nWriting library                          : ZJMedia MPEG Encoder\n\nAudio\nID                                       : 1\nFormat                                   : MPEG Audio\nFormat version                           : Version 1\nFormat profile                           : Layer 3\nMode                                     : Joint stereo\nMode extension                           : MS Stereo\nCodec ID                                 : 55\nCodec ID/Hint                            : MP3\nDuration                                 : 22mn 41s\nBit rate mode                            : Constant\nBit rate                                 : 128 Kbps\nChannel(s)                               : 2 channels\nSampling rate                            : 44.1 KHz\nCompression mode                         : Lossy\nStream size                              : 20.8 MiB (4%)\nAlignment                                : Split accross interleaves\nInterleave, duration                     : 1000 ms (24.99 video frames)\n\n(This is just one file, but all of them are encoded in the same way.)\n\nI did not create this torrent. I just noticed that it is quite hard to find, so I thought I'd share it some more.","torrent":{"xt":"urn:btih:c67077f263af78162136c059d3ec6198a114689d","amp;dn":"Where%27s+Wally%3F%3A+The+Animated+Series","amp;tr":["udp%3A%2F%2Ftracker.openbittorrent.com%3A80","udp%3A%2F%2Fopen.demonii.com%3A1337","udp%3A%2F%2Ftracker.coppersurfer.tk%3A6969","udp%3A%2F%2Fexodus.desync.com%3A6969"],"infoHash":"c67077f263af78162136c059d3ec6198a114689d","infoHashBuffer":{"type":"Buffer","data":[198,112,119,242,99,175,120,22,33,54,192,89,211,236,97,152,161,20,104,157]},"announce":[],"urlList":[]}}